<mxfile host="app.diagrams.net" agent="Mozilla/5.0 (Windows NT 10.0; Win64; x64) AppleWebKit/537.36 (KHTML, like Gecko) Chrome/127.0.0.0 Safari/537.36" version="24.7.6">
  <diagram id="yYjOysU4EfTtzgWFec7C" name="Page-1">
    <mxGraphModel dx="2977" dy="2111" grid="1" gridSize="10" guides="1" tooltips="1" connect="1" arrows="1" fold="1" page="1" pageScale="1" pageWidth="827" pageHeight="1169" math="0" shadow="0">
      <root>
        <mxCell id="0" />
        <mxCell id="1" parent="0" />
        <mxCell id="1gzTH547AW1qi-_04Jj6-20" style="edgeStyle=orthogonalEdgeStyle;rounded=0;orthogonalLoop=1;jettySize=auto;html=1;exitX=0;exitY=1;exitDx=0;exitDy=0;" edge="1" parent="1" source="1gzTH547AW1qi-_04Jj6-1">
          <mxGeometry relative="1" as="geometry">
            <mxPoint x="184.9999999999999" y="520" as="targetPoint" />
          </mxGeometry>
        </mxCell>
        <mxCell id="1gzTH547AW1qi-_04Jj6-30" style="edgeStyle=orthogonalEdgeStyle;rounded=0;orthogonalLoop=1;jettySize=auto;html=1;exitX=1;exitY=0.5;exitDx=0;exitDy=0;entryX=0;entryY=0.5;entryDx=0;entryDy=0;" edge="1" parent="1" source="1gzTH547AW1qi-_04Jj6-1" target="1gzTH547AW1qi-_04Jj6-12">
          <mxGeometry relative="1" as="geometry" />
        </mxCell>
        <mxCell id="1gzTH547AW1qi-_04Jj6-1" value="" style="whiteSpace=wrap;html=1;aspect=fixed;" vertex="1" parent="1">
          <mxGeometry x="80" y="30" width="390" height="390" as="geometry" />
        </mxCell>
        <mxCell id="1gzTH547AW1qi-_04Jj6-2" value="Login Page" style="text;html=1;align=center;verticalAlign=middle;whiteSpace=wrap;rounded=0;" vertex="1" parent="1">
          <mxGeometry x="80" y="50" width="180" height="30" as="geometry" />
        </mxCell>
        <mxCell id="1gzTH547AW1qi-_04Jj6-3" value="User Name" style="rounded=1;whiteSpace=wrap;html=1;" vertex="1" parent="1">
          <mxGeometry x="150" y="110" width="280" height="30" as="geometry" />
        </mxCell>
        <mxCell id="1gzTH547AW1qi-_04Jj6-4" value="Password&amp;nbsp;" style="rounded=1;whiteSpace=wrap;html=1;" vertex="1" parent="1">
          <mxGeometry x="150" y="180" width="280" height="30" as="geometry" />
        </mxCell>
        <mxCell id="1gzTH547AW1qi-_04Jj6-5" value="User Logs in with pre- given username and password" style="text;html=1;align=center;verticalAlign=middle;whiteSpace=wrap;rounded=0;" vertex="1" parent="1">
          <mxGeometry x="110" y="440" width="340" height="30" as="geometry" />
        </mxCell>
        <mxCell id="1gzTH547AW1qi-_04Jj6-7" value="" style="rounded=0;whiteSpace=wrap;html=1;" vertex="1" parent="1">
          <mxGeometry x="620" y="40" width="370" height="270" as="geometry" />
        </mxCell>
        <mxCell id="1gzTH547AW1qi-_04Jj6-8" value="New Password" style="rounded=1;whiteSpace=wrap;html=1;" vertex="1" parent="1">
          <mxGeometry x="680" y="100" width="280" height="30" as="geometry" />
        </mxCell>
        <mxCell id="1gzTH547AW1qi-_04Jj6-9" value="Confirm New Password&amp;nbsp;" style="rounded=1;whiteSpace=wrap;html=1;" vertex="1" parent="1">
          <mxGeometry x="680" y="170" width="280" height="30" as="geometry" />
        </mxCell>
        <mxCell id="1gzTH547AW1qi-_04Jj6-10" style="edgeStyle=orthogonalEdgeStyle;rounded=0;orthogonalLoop=1;jettySize=auto;html=1;entryX=0.014;entryY=0.457;entryDx=0;entryDy=0;entryPerimeter=0;" edge="1" parent="1" target="1gzTH547AW1qi-_04Jj6-7">
          <mxGeometry relative="1" as="geometry">
            <mxPoint x="470" y="225" as="sourcePoint" />
          </mxGeometry>
        </mxCell>
        <mxCell id="1gzTH547AW1qi-_04Jj6-11" value="First Time Login" style="text;html=1;align=center;verticalAlign=middle;whiteSpace=wrap;rounded=0;" vertex="1" parent="1">
          <mxGeometry x="500" y="110" width="60" height="30" as="geometry" />
        </mxCell>
        <mxCell id="1gzTH547AW1qi-_04Jj6-51" style="edgeStyle=orthogonalEdgeStyle;rounded=0;orthogonalLoop=1;jettySize=auto;html=1;exitX=0.5;exitY=1;exitDx=0;exitDy=0;" edge="1" parent="1" source="1gzTH547AW1qi-_04Jj6-12" target="1gzTH547AW1qi-_04Jj6-52">
          <mxGeometry relative="1" as="geometry">
            <mxPoint x="370" y="970" as="targetPoint" />
          </mxGeometry>
        </mxCell>
        <mxCell id="1gzTH547AW1qi-_04Jj6-12" value="" style="rounded=0;whiteSpace=wrap;html=1;" vertex="1" parent="1">
          <mxGeometry x="620" y="420" width="360" height="470" as="geometry" />
        </mxCell>
        <mxCell id="1gzTH547AW1qi-_04Jj6-18" value="Forgot Password ?&amp;nbsp;" style="rounded=1;whiteSpace=wrap;html=1;" vertex="1" parent="1">
          <mxGeometry x="150" y="240" width="180" height="40" as="geometry" />
        </mxCell>
        <mxCell id="1gzTH547AW1qi-_04Jj6-21" value="Forgot Password" style="text;html=1;align=center;verticalAlign=middle;whiteSpace=wrap;rounded=0;" vertex="1" parent="1">
          <mxGeometry x="100" y="470" width="60" height="30" as="geometry" />
        </mxCell>
        <mxCell id="1gzTH547AW1qi-_04Jj6-24" style="edgeStyle=orthogonalEdgeStyle;rounded=0;orthogonalLoop=1;jettySize=auto;html=1;" edge="1" parent="1" source="1gzTH547AW1qi-_04Jj6-22" target="1gzTH547AW1qi-_04Jj6-23">
          <mxGeometry relative="1" as="geometry" />
        </mxCell>
        <mxCell id="1gzTH547AW1qi-_04Jj6-22" value="Send an email (for security purposes) with the link to reset password&amp;nbsp;" style="rounded=1;whiteSpace=wrap;html=1;" vertex="1" parent="1">
          <mxGeometry x="84" y="525" width="330" height="65" as="geometry" />
        </mxCell>
        <mxCell id="1gzTH547AW1qi-_04Jj6-29" style="edgeStyle=orthogonalEdgeStyle;rounded=0;orthogonalLoop=1;jettySize=auto;html=1;exitX=0;exitY=0.5;exitDx=0;exitDy=0;entryX=0;entryY=0.25;entryDx=0;entryDy=0;" edge="1" parent="1" source="1gzTH547AW1qi-_04Jj6-23" target="1gzTH547AW1qi-_04Jj6-1">
          <mxGeometry relative="1" as="geometry">
            <Array as="points">
              <mxPoint y="768" />
              <mxPoint y="127" />
            </Array>
          </mxGeometry>
        </mxCell>
        <mxCell id="1gzTH547AW1qi-_04Jj6-23" value="" style="rounded=1;whiteSpace=wrap;html=1;" vertex="1" parent="1">
          <mxGeometry x="84" y="647" width="330" height="243" as="geometry" />
        </mxCell>
        <mxCell id="1gzTH547AW1qi-_04Jj6-25" value="Reset Password Page&amp;nbsp;" style="text;html=1;align=center;verticalAlign=middle;whiteSpace=wrap;rounded=0;" vertex="1" parent="1">
          <mxGeometry x="100" y="660" width="90" height="30" as="geometry" />
        </mxCell>
        <mxCell id="1gzTH547AW1qi-_04Jj6-26" value="New Password&amp;nbsp;" style="rounded=1;whiteSpace=wrap;html=1;" vertex="1" parent="1">
          <mxGeometry x="160" y="700" width="190" height="30" as="geometry" />
        </mxCell>
        <mxCell id="1gzTH547AW1qi-_04Jj6-27" value="New password Confirmation&amp;nbsp;" style="rounded=1;whiteSpace=wrap;html=1;" vertex="1" parent="1">
          <mxGeometry x="160" y="750" width="190" height="30" as="geometry" />
        </mxCell>
        <mxCell id="1gzTH547AW1qi-_04Jj6-28" value="Reset Button" style="rounded=1;whiteSpace=wrap;html=1;" vertex="1" parent="1">
          <mxGeometry x="200" y="810" width="110" height="30" as="geometry" />
        </mxCell>
        <mxCell id="1gzTH547AW1qi-_04Jj6-31" value="Not First Time Login" style="text;html=1;align=center;verticalAlign=middle;whiteSpace=wrap;rounded=0;" vertex="1" parent="1">
          <mxGeometry x="510" y="542.5" width="60" height="30" as="geometry" />
        </mxCell>
        <mxCell id="1gzTH547AW1qi-_04Jj6-32" value="Profile Page&amp;nbsp;" style="text;html=1;align=center;verticalAlign=middle;whiteSpace=wrap;rounded=0;" vertex="1" parent="1">
          <mxGeometry x="670" y="430" width="60" height="30" as="geometry" />
        </mxCell>
        <mxCell id="1gzTH547AW1qi-_04Jj6-33" value="Photo" style="rounded=1;whiteSpace=wrap;html=1;" vertex="1" parent="1">
          <mxGeometry x="840" y="430" width="120" height="60" as="geometry" />
        </mxCell>
        <mxCell id="1gzTH547AW1qi-_04Jj6-35" value="" style="rounded=1;whiteSpace=wrap;html=1;" vertex="1" parent="1">
          <mxGeometry x="680" y="510" width="260" height="230" as="geometry" />
        </mxCell>
        <mxCell id="1gzTH547AW1qi-_04Jj6-36" value="&lt;font style=&quot;font-size: 18px;&quot;&gt;Employee&amp;nbsp;&lt;/font&gt;" style="ellipse;whiteSpace=wrap;html=1;aspect=fixed;" vertex="1" parent="1">
          <mxGeometry x="50" y="-230" width="210" height="210" as="geometry" />
        </mxCell>
        <mxCell id="1gzTH547AW1qi-_04Jj6-37" value="User Name&amp;nbsp;" style="text;html=1;align=center;verticalAlign=middle;whiteSpace=wrap;rounded=0;" vertex="1" parent="1">
          <mxGeometry x="700" y="525" width="130" height="30" as="geometry" />
        </mxCell>
        <mxCell id="1gzTH547AW1qi-_04Jj6-38" value="National ID" style="text;html=1;align=center;verticalAlign=middle;whiteSpace=wrap;rounded=0;" vertex="1" parent="1">
          <mxGeometry x="700" y="560" width="130" height="30" as="geometry" />
        </mxCell>
        <mxCell id="1gzTH547AW1qi-_04Jj6-39" value="Bank ID" style="text;html=1;align=center;verticalAlign=middle;whiteSpace=wrap;rounded=0;" vertex="1" parent="1">
          <mxGeometry x="700" y="590" width="130" height="30" as="geometry" />
        </mxCell>
        <mxCell id="1gzTH547AW1qi-_04Jj6-42" value="Dept. ID" style="text;html=1;align=center;verticalAlign=middle;whiteSpace=wrap;rounded=0;" vertex="1" parent="1">
          <mxGeometry x="700" y="617" width="130" height="30" as="geometry" />
        </mxCell>
        <mxCell id="1gzTH547AW1qi-_04Jj6-45" value="Job Title&amp;nbsp;" style="text;html=1;align=center;verticalAlign=middle;whiteSpace=wrap;rounded=0;" vertex="1" parent="1">
          <mxGeometry x="690" y="647" width="130" height="30" as="geometry" />
        </mxCell>
        <mxCell id="1gzTH547AW1qi-_04Jj6-46" value="On Going Appointments" style="text;html=1;align=center;verticalAlign=middle;whiteSpace=wrap;rounded=0;" vertex="1" parent="1">
          <mxGeometry x="710" y="677" width="130" height="30" as="geometry" />
        </mxCell>
        <mxCell id="1gzTH547AW1qi-_04Jj6-47" value="Request Appointment&amp;nbsp;" style="rounded=1;whiteSpace=wrap;html=1;" vertex="1" parent="1">
          <mxGeometry x="650" y="770" width="120" height="60" as="geometry" />
        </mxCell>
        <mxCell id="1gzTH547AW1qi-_04Jj6-88" style="edgeStyle=orthogonalEdgeStyle;rounded=0;orthogonalLoop=1;jettySize=auto;html=1;exitX=0.5;exitY=1;exitDx=0;exitDy=0;" edge="1" parent="1" source="1gzTH547AW1qi-_04Jj6-48" target="1gzTH547AW1qi-_04Jj6-87">
          <mxGeometry relative="1" as="geometry" />
        </mxCell>
        <mxCell id="1gzTH547AW1qi-_04Jj6-48" value="View History" style="rounded=1;whiteSpace=wrap;html=1;" vertex="1" parent="1">
          <mxGeometry x="820" y="770" width="120" height="60" as="geometry" />
        </mxCell>
        <mxCell id="1gzTH547AW1qi-_04Jj6-102" style="edgeStyle=orthogonalEdgeStyle;rounded=0;orthogonalLoop=1;jettySize=auto;html=1;exitX=1;exitY=0.5;exitDx=0;exitDy=0;" edge="1" parent="1" source="1gzTH547AW1qi-_04Jj6-49" target="1gzTH547AW1qi-_04Jj6-101">
          <mxGeometry relative="1" as="geometry" />
        </mxCell>
        <mxCell id="1gzTH547AW1qi-_04Jj6-49" value="Cancel Appointment" style="rounded=1;whiteSpace=wrap;html=1;" vertex="1" parent="1">
          <mxGeometry x="860" y="680" width="70" height="30" as="geometry" />
        </mxCell>
        <mxCell id="1gzTH547AW1qi-_04Jj6-52" value="" style="rounded=1;whiteSpace=wrap;html=1;" vertex="1" parent="1">
          <mxGeometry x="150" y="940" width="680" height="600" as="geometry" />
        </mxCell>
        <mxCell id="1gzTH547AW1qi-_04Jj6-53" value="Request Appointment Page" style="text;html=1;align=center;verticalAlign=middle;whiteSpace=wrap;rounded=0;" vertex="1" parent="1">
          <mxGeometry x="340" y="960" width="100" height="30" as="geometry" />
        </mxCell>
        <mxCell id="1gzTH547AW1qi-_04Jj6-54" value="Request Appointment" style="text;html=1;align=center;verticalAlign=middle;whiteSpace=wrap;rounded=0;" vertex="1" parent="1">
          <mxGeometry x="340" y="900" width="60" height="30" as="geometry" />
        </mxCell>
        <mxCell id="1gzTH547AW1qi-_04Jj6-55" value="" style="rounded=1;whiteSpace=wrap;html=1;" vertex="1" parent="1">
          <mxGeometry x="340" y="1010" width="300" height="60" as="geometry" />
        </mxCell>
        <mxCell id="1gzTH547AW1qi-_04Jj6-62" style="edgeStyle=orthogonalEdgeStyle;rounded=0;orthogonalLoop=1;jettySize=auto;html=1;exitX=0.5;exitY=1;exitDx=0;exitDy=0;" edge="1" parent="1" source="1gzTH547AW1qi-_04Jj6-56">
          <mxGeometry relative="1" as="geometry">
            <mxPoint x="270" y="1135" as="targetPoint" />
          </mxGeometry>
        </mxCell>
        <mxCell id="1gzTH547AW1qi-_04Jj6-56" value="Doctor&#39;s Appointment" style="text;html=1;align=center;verticalAlign=middle;whiteSpace=wrap;rounded=0;" vertex="1" parent="1">
          <mxGeometry x="350" y="1025" width="60" height="30" as="geometry" />
        </mxCell>
        <mxCell id="1gzTH547AW1qi-_04Jj6-70" style="edgeStyle=orthogonalEdgeStyle;rounded=0;orthogonalLoop=1;jettySize=auto;html=1;exitX=0.5;exitY=1;exitDx=0;exitDy=0;" edge="1" parent="1" source="1gzTH547AW1qi-_04Jj6-59">
          <mxGeometry relative="1" as="geometry">
            <mxPoint x="700" y="1083" as="targetPoint" />
          </mxGeometry>
        </mxCell>
        <mxCell id="1gzTH547AW1qi-_04Jj6-59" value="Medicine Request (If a medicine that needs restocking)" style="text;html=1;align=center;verticalAlign=middle;whiteSpace=wrap;rounded=0;" vertex="1" parent="1">
          <mxGeometry x="530" y="1025" width="100" height="35" as="geometry" />
        </mxCell>
        <mxCell id="1gzTH547AW1qi-_04Jj6-60" value="// Can we remove the labb request because it is the doctor&#39;s resposibility to order&amp;nbsp;" style="text;html=1;align=center;verticalAlign=middle;whiteSpace=wrap;rounded=0;" vertex="1" parent="1">
          <mxGeometry x="190" y="1010" width="60" height="30" as="geometry" />
        </mxCell>
        <mxCell id="1gzTH547AW1qi-_04Jj6-63" value="" style="rounded=1;whiteSpace=wrap;html=1;" vertex="1" parent="1">
          <mxGeometry x="215" y="1140" width="195" height="260" as="geometry" />
        </mxCell>
        <mxCell id="1gzTH547AW1qi-_04Jj6-64" value="Hospital Names&amp;nbsp;" style="rounded=1;whiteSpace=wrap;html=1;" vertex="1" parent="1">
          <mxGeometry x="250" y="1180" width="120" height="60" as="geometry" />
        </mxCell>
        <mxCell id="1gzTH547AW1qi-_04Jj6-67" value="Chosen Hospital Departments&amp;nbsp;&lt;span style=&quot;color: rgba(0, 0, 0, 0); font-family: monospace; font-size: 0px; text-align: start; text-wrap: nowrap;&quot;&gt;%3CmxGraphModel%3E%3Croot%3E%3CmxCell%20id%3D%220%22%2F%3E%3CmxCell%20id%3D%221%22%20parent%3D%220%22%2F%3E%3CmxCell%20id%3D%222%22%20value%3D%22Hospital%20Names%26amp%3Bnbsp%3B%22%20style%3D%22rounded%3D1%3BwhiteSpace%3Dwrap%3Bhtml%3D1%3B%22%20vertex%3D%221%22%20parent%3D%221%22%3E%3CmxGeometry%20x%3D%22250%22%20y%3D%221180%22%20width%3D%22120%22%20height%3D%2260%22%20as%3D%22geometry%22%2F%3E%3C%2FmxCell%3E%3C%2Froot%3E%3C%2FmxGraphModel%3E&lt;/span&gt;" style="rounded=1;whiteSpace=wrap;html=1;" vertex="1" parent="1">
          <mxGeometry x="250" y="1250" width="120" height="60" as="geometry" />
        </mxCell>
        <mxCell id="1gzTH547AW1qi-_04Jj6-68" value="Time Table of the Chosen Dept.&amp;nbsp;" style="rounded=1;whiteSpace=wrap;html=1;" vertex="1" parent="1">
          <mxGeometry x="250" y="1320" width="120" height="60" as="geometry" />
        </mxCell>
        <mxCell id="1gzTH547AW1qi-_04Jj6-71" value="" style="rounded=1;whiteSpace=wrap;html=1;" vertex="1" parent="1">
          <mxGeometry x="570" y="1090" width="210" height="390" as="geometry" />
        </mxCell>
        <mxCell id="1gzTH547AW1qi-_04Jj6-72" value="Pharmacies" style="rounded=1;whiteSpace=wrap;html=1;" vertex="1" parent="1">
          <mxGeometry x="610" y="1130" width="120" height="60" as="geometry" />
        </mxCell>
        <mxCell id="1gzTH547AW1qi-_04Jj6-73" value="Choose any of the monthly medicines to be renewed&amp;nbsp;" style="rounded=1;whiteSpace=wrap;html=1;" vertex="1" parent="1">
          <mxGeometry x="610" y="1195" width="120" height="60" as="geometry" />
        </mxCell>
        <mxCell id="1gzTH547AW1qi-_04Jj6-75" value="Table of the Medicines &#xa;to be renewed" style="shape=table;startSize=40;container=1;collapsible=0;childLayout=tableLayout;fixedRows=1;rowLines=0;fontStyle=0;strokeColor=default;fontSize=16;" vertex="1" parent="1">
          <mxGeometry x="585" y="1280" width="180" height="130" as="geometry" />
        </mxCell>
        <mxCell id="1gzTH547AW1qi-_04Jj6-76" value="" style="shape=tableRow;horizontal=0;startSize=0;swimlaneHead=0;swimlaneBody=0;top=0;left=0;bottom=0;right=0;collapsible=0;dropTarget=0;fillColor=none;points=[[0,0.5],[1,0.5]];portConstraint=eastwest;strokeColor=inherit;fontSize=16;" vertex="1" parent="1gzTH547AW1qi-_04Jj6-75">
          <mxGeometry y="40" width="180" height="30" as="geometry" />
        </mxCell>
        <mxCell id="1gzTH547AW1qi-_04Jj6-77" value="1" style="shape=partialRectangle;html=1;whiteSpace=wrap;connectable=0;fillColor=none;top=0;left=0;bottom=0;right=0;overflow=hidden;pointerEvents=1;strokeColor=inherit;fontSize=16;" vertex="1" parent="1gzTH547AW1qi-_04Jj6-76">
          <mxGeometry width="40" height="30" as="geometry">
            <mxRectangle width="40" height="30" as="alternateBounds" />
          </mxGeometry>
        </mxCell>
        <mxCell id="1gzTH547AW1qi-_04Jj6-78" value="Value 1" style="shape=partialRectangle;html=1;whiteSpace=wrap;connectable=0;fillColor=none;top=0;left=0;bottom=0;right=0;align=left;spacingLeft=6;overflow=hidden;strokeColor=inherit;fontSize=16;" vertex="1" parent="1gzTH547AW1qi-_04Jj6-76">
          <mxGeometry x="40" width="140" height="30" as="geometry">
            <mxRectangle width="140" height="30" as="alternateBounds" />
          </mxGeometry>
        </mxCell>
        <mxCell id="1gzTH547AW1qi-_04Jj6-79" value="" style="shape=tableRow;horizontal=0;startSize=0;swimlaneHead=0;swimlaneBody=0;top=0;left=0;bottom=0;right=0;collapsible=0;dropTarget=0;fillColor=none;points=[[0,0.5],[1,0.5]];portConstraint=eastwest;strokeColor=inherit;fontSize=16;" vertex="1" parent="1gzTH547AW1qi-_04Jj6-75">
          <mxGeometry y="70" width="180" height="30" as="geometry" />
        </mxCell>
        <mxCell id="1gzTH547AW1qi-_04Jj6-80" value="2" style="shape=partialRectangle;html=1;whiteSpace=wrap;connectable=0;fillColor=none;top=0;left=0;bottom=0;right=0;overflow=hidden;strokeColor=inherit;fontSize=16;" vertex="1" parent="1gzTH547AW1qi-_04Jj6-79">
          <mxGeometry width="40" height="30" as="geometry">
            <mxRectangle width="40" height="30" as="alternateBounds" />
          </mxGeometry>
        </mxCell>
        <mxCell id="1gzTH547AW1qi-_04Jj6-81" value="Value 2" style="shape=partialRectangle;html=1;whiteSpace=wrap;connectable=0;fillColor=none;top=0;left=0;bottom=0;right=0;align=left;spacingLeft=6;overflow=hidden;strokeColor=inherit;fontSize=16;" vertex="1" parent="1gzTH547AW1qi-_04Jj6-79">
          <mxGeometry x="40" width="140" height="30" as="geometry">
            <mxRectangle width="140" height="30" as="alternateBounds" />
          </mxGeometry>
        </mxCell>
        <mxCell id="1gzTH547AW1qi-_04Jj6-82" value="" style="shape=tableRow;horizontal=0;startSize=0;swimlaneHead=0;swimlaneBody=0;top=0;left=0;bottom=0;right=0;collapsible=0;dropTarget=0;fillColor=none;points=[[0,0.5],[1,0.5]];portConstraint=eastwest;strokeColor=inherit;fontSize=16;" vertex="1" parent="1gzTH547AW1qi-_04Jj6-75">
          <mxGeometry y="100" width="180" height="30" as="geometry" />
        </mxCell>
        <mxCell id="1gzTH547AW1qi-_04Jj6-83" value="3" style="shape=partialRectangle;html=1;whiteSpace=wrap;connectable=0;fillColor=none;top=0;left=0;bottom=0;right=0;overflow=hidden;strokeColor=inherit;fontSize=16;" vertex="1" parent="1gzTH547AW1qi-_04Jj6-82">
          <mxGeometry width="40" height="30" as="geometry">
            <mxRectangle width="40" height="30" as="alternateBounds" />
          </mxGeometry>
        </mxCell>
        <mxCell id="1gzTH547AW1qi-_04Jj6-84" value="Value 3" style="shape=partialRectangle;html=1;whiteSpace=wrap;connectable=0;fillColor=none;top=0;left=0;bottom=0;right=0;align=left;spacingLeft=6;overflow=hidden;strokeColor=inherit;fontSize=16;" vertex="1" parent="1gzTH547AW1qi-_04Jj6-82">
          <mxGeometry x="40" width="140" height="30" as="geometry">
            <mxRectangle width="140" height="30" as="alternateBounds" />
          </mxGeometry>
        </mxCell>
        <mxCell id="1gzTH547AW1qi-_04Jj6-86" value="Renew&amp;nbsp;" style="rounded=1;whiteSpace=wrap;html=1;" vertex="1" parent="1">
          <mxGeometry x="615" y="1420" width="115" height="50" as="geometry" />
        </mxCell>
        <mxCell id="1gzTH547AW1qi-_04Jj6-87" value="" style="rounded=1;whiteSpace=wrap;html=1;" vertex="1" parent="1">
          <mxGeometry x="1311" y="880" width="429" height="440" as="geometry" />
        </mxCell>
        <mxCell id="1gzTH547AW1qi-_04Jj6-89" value="View Medical History" style="text;html=1;align=center;verticalAlign=middle;whiteSpace=wrap;rounded=0;" vertex="1" parent="1">
          <mxGeometry x="1150" y="820" width="100" height="30" as="geometry" />
        </mxCell>
        <mxCell id="1gzTH547AW1qi-_04Jj6-90" value="View History Page&amp;nbsp;" style="text;html=1;align=center;verticalAlign=middle;whiteSpace=wrap;rounded=0;" vertex="1" parent="1">
          <mxGeometry x="1360" y="890" width="110" height="30" as="geometry" />
        </mxCell>
        <mxCell id="1gzTH547AW1qi-_04Jj6-92" value="" style="shape=table;startSize=0;container=1;collapsible=0;childLayout=tableLayout;fontSize=11;fillColor=none;strokeColor=none;" vertex="1" parent="1">
          <mxGeometry x="1385" y="950" width="255" height="290" as="geometry" />
        </mxCell>
        <mxCell id="1gzTH547AW1qi-_04Jj6-93" value="" style="shape=tableRow;horizontal=0;startSize=0;swimlaneHead=0;swimlaneBody=0;strokeColor=inherit;top=0;left=0;bottom=0;right=0;collapsible=0;dropTarget=0;fillColor=none;points=[[0,0.5],[1,0.5]];portConstraint=eastwest;fontSize=16;" vertex="1" parent="1gzTH547AW1qi-_04Jj6-92">
          <mxGeometry width="255" height="73" as="geometry" />
        </mxCell>
        <mxCell id="1gzTH547AW1qi-_04Jj6-94" value="&lt;font style=&quot;font-size: 14px;&quot;&gt;Previous Prescriptions&amp;nbsp;&lt;/font&gt;" style="shape=partialRectangle;html=1;whiteSpace=wrap;connectable=0;strokeColor=inherit;overflow=hidden;fillColor=none;top=0;left=0;bottom=0;right=0;pointerEvents=1;fontSize=12;align=left;spacingLeft=5;" vertex="1" parent="1gzTH547AW1qi-_04Jj6-93">
          <mxGeometry width="255" height="73" as="geometry">
            <mxRectangle width="255" height="73" as="alternateBounds" />
          </mxGeometry>
        </mxCell>
        <mxCell id="1gzTH547AW1qi-_04Jj6-95" value="" style="shape=tableRow;horizontal=0;startSize=0;swimlaneHead=0;swimlaneBody=0;strokeColor=inherit;top=0;left=0;bottom=0;right=0;collapsible=0;dropTarget=0;fillColor=none;points=[[0,0.5],[1,0.5]];portConstraint=eastwest;fontSize=16;" vertex="1" parent="1gzTH547AW1qi-_04Jj6-92">
          <mxGeometry y="73" width="255" height="72" as="geometry" />
        </mxCell>
        <mxCell id="1gzTH547AW1qi-_04Jj6-96" value="&lt;font style=&quot;font-size: 14px;&quot;&gt;Previous LabTests&lt;/font&gt;" style="shape=partialRectangle;html=1;whiteSpace=wrap;connectable=0;strokeColor=inherit;overflow=hidden;fillColor=none;top=0;left=0;bottom=0;right=0;pointerEvents=1;fontSize=12;align=left;spacingLeft=5;" vertex="1" parent="1gzTH547AW1qi-_04Jj6-95">
          <mxGeometry width="255" height="72" as="geometry">
            <mxRectangle width="255" height="72" as="alternateBounds" />
          </mxGeometry>
        </mxCell>
        <mxCell id="1gzTH547AW1qi-_04Jj6-97" value="" style="shape=tableRow;horizontal=0;startSize=0;swimlaneHead=0;swimlaneBody=0;strokeColor=inherit;top=0;left=0;bottom=0;right=0;collapsible=0;dropTarget=0;fillColor=none;points=[[0,0.5],[1,0.5]];portConstraint=eastwest;fontSize=16;" vertex="1" parent="1gzTH547AW1qi-_04Jj6-92">
          <mxGeometry y="145" width="255" height="73" as="geometry" />
        </mxCell>
        <mxCell id="1gzTH547AW1qi-_04Jj6-98" value="&lt;font style=&quot;font-size: 14px;&quot;&gt;Already Done Appointments&amp;nbsp;&lt;/font&gt;" style="shape=partialRectangle;html=1;whiteSpace=wrap;connectable=0;strokeColor=inherit;overflow=hidden;fillColor=none;top=0;left=0;bottom=0;right=0;pointerEvents=1;fontSize=12;align=left;spacingLeft=5;" vertex="1" parent="1gzTH547AW1qi-_04Jj6-97">
          <mxGeometry width="255" height="73" as="geometry">
            <mxRectangle width="255" height="73" as="alternateBounds" />
          </mxGeometry>
        </mxCell>
        <mxCell id="1gzTH547AW1qi-_04Jj6-99" style="shape=tableRow;horizontal=0;startSize=0;swimlaneHead=0;swimlaneBody=0;strokeColor=inherit;top=0;left=0;bottom=0;right=0;collapsible=0;dropTarget=0;fillColor=none;points=[[0,0.5],[1,0.5]];portConstraint=eastwest;fontSize=16;" vertex="1" parent="1gzTH547AW1qi-_04Jj6-92">
          <mxGeometry y="218" width="255" height="72" as="geometry" />
        </mxCell>
        <mxCell id="1gzTH547AW1qi-_04Jj6-100" value="&lt;font style=&quot;font-size: 14px;&quot;&gt;Already Taken Sick&amp;nbsp; Leaves&amp;nbsp;&lt;/font&gt;" style="shape=partialRectangle;html=1;whiteSpace=wrap;connectable=0;strokeColor=inherit;overflow=hidden;fillColor=none;top=0;left=0;bottom=0;right=0;pointerEvents=1;fontSize=12;align=left;spacingLeft=5;" vertex="1" parent="1gzTH547AW1qi-_04Jj6-99">
          <mxGeometry width="255" height="72" as="geometry">
            <mxRectangle width="255" height="72" as="alternateBounds" />
          </mxGeometry>
        </mxCell>
        <mxCell id="1gzTH547AW1qi-_04Jj6-101" value="Are You Sure You Want To Cancel ?&lt;div&gt;&lt;br&gt;&lt;/div&gt;&lt;div&gt;Yes&amp;nbsp; &amp;nbsp; &amp;nbsp; &amp;nbsp; &amp;nbsp; &amp;nbsp; &amp;nbsp;No&amp;nbsp;&lt;/div&gt;" style="rounded=1;whiteSpace=wrap;html=1;" vertex="1" parent="1">
          <mxGeometry x="1096" y="680" width="204" height="80" as="geometry" />
        </mxCell>
        <mxCell id="1gzTH547AW1qi-_04Jj6-103" value="&lt;font style=&quot;font-size: 24px;&quot;&gt;Finance&amp;nbsp;&lt;/font&gt;" style="ellipse;whiteSpace=wrap;html=1;" vertex="1" parent="1">
          <mxGeometry x="-180" y="1770" width="290" height="180" as="geometry" />
        </mxCell>
        <mxCell id="1gzTH547AW1qi-_04Jj6-104" style="edgeStyle=orthogonalEdgeStyle;rounded=0;orthogonalLoop=1;jettySize=auto;html=1;exitX=0;exitY=1;exitDx=0;exitDy=0;" edge="1" parent="1" source="1gzTH547AW1qi-_04Jj6-106">
          <mxGeometry relative="1" as="geometry">
            <mxPoint x="134.9999999999999" y="2510" as="targetPoint" />
          </mxGeometry>
        </mxCell>
        <mxCell id="1gzTH547AW1qi-_04Jj6-105" style="edgeStyle=orthogonalEdgeStyle;rounded=0;orthogonalLoop=1;jettySize=auto;html=1;exitX=1;exitY=0.5;exitDx=0;exitDy=0;entryX=0;entryY=0.5;entryDx=0;entryDy=0;" edge="1" parent="1" source="1gzTH547AW1qi-_04Jj6-106" target="1gzTH547AW1qi-_04Jj6-116">
          <mxGeometry relative="1" as="geometry" />
        </mxCell>
        <mxCell id="1gzTH547AW1qi-_04Jj6-106" value="" style="whiteSpace=wrap;html=1;aspect=fixed;" vertex="1" parent="1">
          <mxGeometry x="30" y="2020" width="390" height="390" as="geometry" />
        </mxCell>
        <mxCell id="1gzTH547AW1qi-_04Jj6-107" value="Login Page" style="text;html=1;align=center;verticalAlign=middle;whiteSpace=wrap;rounded=0;" vertex="1" parent="1">
          <mxGeometry x="30" y="2040" width="180" height="30" as="geometry" />
        </mxCell>
        <mxCell id="1gzTH547AW1qi-_04Jj6-108" value="User Name" style="rounded=1;whiteSpace=wrap;html=1;" vertex="1" parent="1">
          <mxGeometry x="100" y="2100" width="280" height="30" as="geometry" />
        </mxCell>
        <mxCell id="1gzTH547AW1qi-_04Jj6-109" value="Password&amp;nbsp;" style="rounded=1;whiteSpace=wrap;html=1;" vertex="1" parent="1">
          <mxGeometry x="100" y="2180" width="280" height="30" as="geometry" />
        </mxCell>
        <mxCell id="1gzTH547AW1qi-_04Jj6-110" value="User Logs in with pre- given username and password" style="text;html=1;align=center;verticalAlign=middle;whiteSpace=wrap;rounded=0;" vertex="1" parent="1">
          <mxGeometry x="60" y="2430" width="340" height="30" as="geometry" />
        </mxCell>
        <mxCell id="1gzTH547AW1qi-_04Jj6-111" value="" style="rounded=0;whiteSpace=wrap;html=1;" vertex="1" parent="1">
          <mxGeometry x="570" y="2030" width="370" height="270" as="geometry" />
        </mxCell>
        <mxCell id="1gzTH547AW1qi-_04Jj6-112" value="New Password" style="rounded=1;whiteSpace=wrap;html=1;" vertex="1" parent="1">
          <mxGeometry x="630" y="2090" width="280" height="30" as="geometry" />
        </mxCell>
        <mxCell id="1gzTH547AW1qi-_04Jj6-113" value="Confirm New Password&amp;nbsp;" style="rounded=1;whiteSpace=wrap;html=1;" vertex="1" parent="1">
          <mxGeometry x="630" y="2160" width="280" height="30" as="geometry" />
        </mxCell>
        <mxCell id="1gzTH547AW1qi-_04Jj6-114" style="edgeStyle=orthogonalEdgeStyle;rounded=0;orthogonalLoop=1;jettySize=auto;html=1;entryX=0.014;entryY=0.457;entryDx=0;entryDy=0;entryPerimeter=0;" edge="1" parent="1" target="1gzTH547AW1qi-_04Jj6-111">
          <mxGeometry relative="1" as="geometry">
            <mxPoint x="420" y="2215" as="sourcePoint" />
          </mxGeometry>
        </mxCell>
        <mxCell id="1gzTH547AW1qi-_04Jj6-115" value="First Time Login" style="text;html=1;align=center;verticalAlign=middle;whiteSpace=wrap;rounded=0;" vertex="1" parent="1">
          <mxGeometry x="450" y="2100" width="60" height="30" as="geometry" />
        </mxCell>
        <mxCell id="1gzTH547AW1qi-_04Jj6-116" value="" style="rounded=0;whiteSpace=wrap;html=1;" vertex="1" parent="1">
          <mxGeometry x="560" y="2417" width="360" height="470" as="geometry" />
        </mxCell>
        <mxCell id="1gzTH547AW1qi-_04Jj6-117" value="Forgot Password ?&amp;nbsp;" style="rounded=1;whiteSpace=wrap;html=1;" vertex="1" parent="1">
          <mxGeometry x="100" y="2230" width="180" height="40" as="geometry" />
        </mxCell>
        <mxCell id="1gzTH547AW1qi-_04Jj6-118" value="Forgot Password" style="text;html=1;align=center;verticalAlign=middle;whiteSpace=wrap;rounded=0;" vertex="1" parent="1">
          <mxGeometry x="50" y="2460" width="60" height="30" as="geometry" />
        </mxCell>
        <mxCell id="1gzTH547AW1qi-_04Jj6-119" style="edgeStyle=orthogonalEdgeStyle;rounded=0;orthogonalLoop=1;jettySize=auto;html=1;" edge="1" parent="1" source="1gzTH547AW1qi-_04Jj6-120" target="1gzTH547AW1qi-_04Jj6-121">
          <mxGeometry relative="1" as="geometry" />
        </mxCell>
        <mxCell id="1gzTH547AW1qi-_04Jj6-120" value="Send an email (for security purposes) with the link to reset password&amp;nbsp;" style="rounded=1;whiteSpace=wrap;html=1;" vertex="1" parent="1">
          <mxGeometry x="34" y="2515" width="330" height="65" as="geometry" />
        </mxCell>
        <mxCell id="1gzTH547AW1qi-_04Jj6-121" value="" style="rounded=1;whiteSpace=wrap;html=1;" vertex="1" parent="1">
          <mxGeometry x="34" y="2637" width="330" height="243" as="geometry" />
        </mxCell>
        <mxCell id="1gzTH547AW1qi-_04Jj6-122" value="Reset Password Page&amp;nbsp;" style="text;html=1;align=center;verticalAlign=middle;whiteSpace=wrap;rounded=0;" vertex="1" parent="1">
          <mxGeometry x="50" y="2650" width="90" height="30" as="geometry" />
        </mxCell>
        <mxCell id="1gzTH547AW1qi-_04Jj6-123" value="New Password&amp;nbsp;" style="rounded=1;whiteSpace=wrap;html=1;" vertex="1" parent="1">
          <mxGeometry x="110" y="2690" width="190" height="30" as="geometry" />
        </mxCell>
        <mxCell id="1gzTH547AW1qi-_04Jj6-124" value="New password Confirmation&amp;nbsp;" style="rounded=1;whiteSpace=wrap;html=1;" vertex="1" parent="1">
          <mxGeometry x="110" y="2740" width="190" height="30" as="geometry" />
        </mxCell>
        <mxCell id="1gzTH547AW1qi-_04Jj6-125" value="Reset Button" style="rounded=1;whiteSpace=wrap;html=1;" vertex="1" parent="1">
          <mxGeometry x="150" y="2800" width="110" height="30" as="geometry" />
        </mxCell>
        <mxCell id="1gzTH547AW1qi-_04Jj6-126" value="Not First Time Login" style="text;html=1;align=center;verticalAlign=middle;whiteSpace=wrap;rounded=0;" vertex="1" parent="1">
          <mxGeometry x="460" y="2532.5" width="60" height="30" as="geometry" />
        </mxCell>
        <mxCell id="1gzTH547AW1qi-_04Jj6-127" value="Finance Home Page&amp;nbsp;" style="text;html=1;align=center;verticalAlign=middle;whiteSpace=wrap;rounded=0;" vertex="1" parent="1">
          <mxGeometry x="580" y="2410" width="130" height="30" as="geometry" />
        </mxCell>
        <mxCell id="1gzTH547AW1qi-_04Jj6-140" value="&lt;font style=&quot;font-size: 18px;&quot;&gt;All Requests&amp;nbsp;&lt;/font&gt;&lt;div&gt;&lt;font style=&quot;font-size: 12px;&quot;&gt;(Appointments do not need confirmation)&lt;/font&gt;&lt;/div&gt;&lt;div&gt;&lt;font style=&quot;font-size: 18px;&quot;&gt;&amp;nbsp;&lt;/font&gt;&lt;/div&gt;" style="rounded=1;whiteSpace=wrap;html=1;" vertex="1" parent="1">
          <mxGeometry x="630" y="2500" width="270" height="130" as="geometry" />
        </mxCell>
        <mxCell id="1gzTH547AW1qi-_04Jj6-146" style="edgeStyle=orthogonalEdgeStyle;rounded=0;orthogonalLoop=1;jettySize=auto;html=1;exitX=1;exitY=0.5;exitDx=0;exitDy=0;" edge="1" parent="1" source="1gzTH547AW1qi-_04Jj6-142" target="1gzTH547AW1qi-_04Jj6-145">
          <mxGeometry relative="1" as="geometry" />
        </mxCell>
        <mxCell id="1gzTH547AW1qi-_04Jj6-142" value="View Invoice Button" style="rounded=1;whiteSpace=wrap;html=1;" vertex="1" parent="1">
          <mxGeometry x="690" y="2580" width="140" height="30" as="geometry" />
        </mxCell>
        <mxCell id="1gzTH547AW1qi-_04Jj6-145" value="View Notes (Description) of the Invoice&amp;nbsp;&lt;div&gt;&lt;br&gt;&lt;/div&gt;&lt;div&gt;// If the price is within the policy --&amp;gt; Confirm&amp;nbsp; &amp;nbsp; &amp;nbsp;Decline&amp;nbsp;&lt;/div&gt;&lt;div&gt;&lt;br&gt;&lt;/div&gt;&lt;div&gt;&lt;br&gt;&lt;/div&gt;&lt;div&gt;// If the price is not within the policy --&amp;gt; Confirm Payment Upto the Price in the policy&amp;nbsp; &amp;nbsp; Decline&amp;nbsp;&lt;/div&gt;" style="rounded=1;whiteSpace=wrap;html=1;" vertex="1" parent="1">
          <mxGeometry x="1030" y="2590" width="480" height="260" as="geometry" />
        </mxCell>
        <mxCell id="1gzTH547AW1qi-_04Jj6-147" value="// What is the scenario ?" style="text;html=1;align=center;verticalAlign=middle;whiteSpace=wrap;rounded=0;" vertex="1" parent="1">
          <mxGeometry x="1036" y="2607" width="274" height="30" as="geometry" />
        </mxCell>
        <mxCell id="1gzTH547AW1qi-_04Jj6-160" value="&lt;font style=&quot;font-size: 24px;&quot;&gt;Doctor&amp;nbsp;&lt;/font&gt;" style="ellipse;whiteSpace=wrap;html=1;" vertex="1" parent="1">
          <mxGeometry x="165" y="3400" width="235" height="140" as="geometry" />
        </mxCell>
        <mxCell id="1gzTH547AW1qi-_04Jj6-161" style="edgeStyle=orthogonalEdgeStyle;rounded=0;orthogonalLoop=1;jettySize=auto;html=1;exitX=0;exitY=1;exitDx=0;exitDy=0;" edge="1" parent="1" source="1gzTH547AW1qi-_04Jj6-163">
          <mxGeometry relative="1" as="geometry">
            <mxPoint x="524.9999999999999" y="4080" as="targetPoint" />
          </mxGeometry>
        </mxCell>
        <mxCell id="1gzTH547AW1qi-_04Jj6-162" style="edgeStyle=orthogonalEdgeStyle;rounded=0;orthogonalLoop=1;jettySize=auto;html=1;exitX=1;exitY=0.5;exitDx=0;exitDy=0;entryX=0;entryY=0.5;entryDx=0;entryDy=0;" edge="1" parent="1" source="1gzTH547AW1qi-_04Jj6-163" target="1gzTH547AW1qi-_04Jj6-173">
          <mxGeometry relative="1" as="geometry" />
        </mxCell>
        <mxCell id="1gzTH547AW1qi-_04Jj6-163" value="" style="whiteSpace=wrap;html=1;aspect=fixed;" vertex="1" parent="1">
          <mxGeometry x="420" y="3590" width="390" height="390" as="geometry" />
        </mxCell>
        <mxCell id="1gzTH547AW1qi-_04Jj6-164" value="Login Page" style="text;html=1;align=center;verticalAlign=middle;whiteSpace=wrap;rounded=0;" vertex="1" parent="1">
          <mxGeometry x="420" y="3610" width="180" height="30" as="geometry" />
        </mxCell>
        <mxCell id="1gzTH547AW1qi-_04Jj6-165" value="User Name" style="rounded=1;whiteSpace=wrap;html=1;" vertex="1" parent="1">
          <mxGeometry x="490" y="3670" width="280" height="30" as="geometry" />
        </mxCell>
        <mxCell id="1gzTH547AW1qi-_04Jj6-166" value="Password&amp;nbsp;" style="rounded=1;whiteSpace=wrap;html=1;" vertex="1" parent="1">
          <mxGeometry x="490" y="3740" width="280" height="30" as="geometry" />
        </mxCell>
        <mxCell id="1gzTH547AW1qi-_04Jj6-167" value="User Logs in with pre- given username and password" style="text;html=1;align=center;verticalAlign=middle;whiteSpace=wrap;rounded=0;" vertex="1" parent="1">
          <mxGeometry x="450" y="4000" width="340" height="30" as="geometry" />
        </mxCell>
        <mxCell id="1gzTH547AW1qi-_04Jj6-168" value="" style="rounded=0;whiteSpace=wrap;html=1;" vertex="1" parent="1">
          <mxGeometry x="960" y="3600" width="370" height="270" as="geometry" />
        </mxCell>
        <mxCell id="1gzTH547AW1qi-_04Jj6-169" value="New Password" style="rounded=1;whiteSpace=wrap;html=1;" vertex="1" parent="1">
          <mxGeometry x="1020" y="3660" width="280" height="30" as="geometry" />
        </mxCell>
        <mxCell id="1gzTH547AW1qi-_04Jj6-170" value="Confirm New Password&amp;nbsp;" style="rounded=1;whiteSpace=wrap;html=1;" vertex="1" parent="1">
          <mxGeometry x="1020" y="3730" width="280" height="30" as="geometry" />
        </mxCell>
        <mxCell id="1gzTH547AW1qi-_04Jj6-171" style="edgeStyle=orthogonalEdgeStyle;rounded=0;orthogonalLoop=1;jettySize=auto;html=1;entryX=0.014;entryY=0.457;entryDx=0;entryDy=0;entryPerimeter=0;" edge="1" parent="1" target="1gzTH547AW1qi-_04Jj6-168">
          <mxGeometry relative="1" as="geometry">
            <mxPoint x="810" y="3785" as="sourcePoint" />
          </mxGeometry>
        </mxCell>
        <mxCell id="1gzTH547AW1qi-_04Jj6-172" value="First Time Login" style="text;html=1;align=center;verticalAlign=middle;whiteSpace=wrap;rounded=0;" vertex="1" parent="1">
          <mxGeometry x="840" y="3670" width="60" height="30" as="geometry" />
        </mxCell>
        <mxCell id="1gzTH547AW1qi-_04Jj6-173" value="" style="rounded=0;whiteSpace=wrap;html=1;" vertex="1" parent="1">
          <mxGeometry x="960" y="3980" width="360" height="950" as="geometry" />
        </mxCell>
        <mxCell id="1gzTH547AW1qi-_04Jj6-174" value="Forgot Password ?&amp;nbsp;" style="rounded=1;whiteSpace=wrap;html=1;" vertex="1" parent="1">
          <mxGeometry x="490" y="3800" width="180" height="40" as="geometry" />
        </mxCell>
        <mxCell id="1gzTH547AW1qi-_04Jj6-175" value="Forgot Password" style="text;html=1;align=center;verticalAlign=middle;whiteSpace=wrap;rounded=0;" vertex="1" parent="1">
          <mxGeometry x="440" y="4030" width="60" height="30" as="geometry" />
        </mxCell>
        <mxCell id="1gzTH547AW1qi-_04Jj6-176" style="edgeStyle=orthogonalEdgeStyle;rounded=0;orthogonalLoop=1;jettySize=auto;html=1;" edge="1" parent="1" source="1gzTH547AW1qi-_04Jj6-177" target="1gzTH547AW1qi-_04Jj6-179">
          <mxGeometry relative="1" as="geometry" />
        </mxCell>
        <mxCell id="1gzTH547AW1qi-_04Jj6-177" value="Send an email (for security purposes) with the link to reset password&amp;nbsp;" style="rounded=1;whiteSpace=wrap;html=1;" vertex="1" parent="1">
          <mxGeometry x="424" y="4085" width="330" height="65" as="geometry" />
        </mxCell>
        <mxCell id="1gzTH547AW1qi-_04Jj6-178" style="edgeStyle=orthogonalEdgeStyle;rounded=0;orthogonalLoop=1;jettySize=auto;html=1;exitX=0;exitY=0.5;exitDx=0;exitDy=0;entryX=0;entryY=0.25;entryDx=0;entryDy=0;" edge="1" parent="1" source="1gzTH547AW1qi-_04Jj6-179" target="1gzTH547AW1qi-_04Jj6-163">
          <mxGeometry relative="1" as="geometry">
            <Array as="points">
              <mxPoint x="340" y="4328" />
              <mxPoint x="340" y="3687" />
            </Array>
          </mxGeometry>
        </mxCell>
        <mxCell id="1gzTH547AW1qi-_04Jj6-179" value="" style="rounded=1;whiteSpace=wrap;html=1;" vertex="1" parent="1">
          <mxGeometry x="430" y="4200" width="330" height="243" as="geometry" />
        </mxCell>
        <mxCell id="1gzTH547AW1qi-_04Jj6-180" value="Reset Password Page&amp;nbsp;" style="text;html=1;align=center;verticalAlign=middle;whiteSpace=wrap;rounded=0;" vertex="1" parent="1">
          <mxGeometry x="440" y="4220" width="90" height="30" as="geometry" />
        </mxCell>
        <mxCell id="1gzTH547AW1qi-_04Jj6-181" value="New Password&amp;nbsp;" style="rounded=1;whiteSpace=wrap;html=1;" vertex="1" parent="1">
          <mxGeometry x="500" y="4260" width="190" height="30" as="geometry" />
        </mxCell>
        <mxCell id="1gzTH547AW1qi-_04Jj6-182" value="New password Confirmation&amp;nbsp;" style="rounded=1;whiteSpace=wrap;html=1;" vertex="1" parent="1">
          <mxGeometry x="500" y="4310" width="190" height="30" as="geometry" />
        </mxCell>
        <mxCell id="1gzTH547AW1qi-_04Jj6-183" value="Reset Button" style="rounded=1;whiteSpace=wrap;html=1;" vertex="1" parent="1">
          <mxGeometry x="540" y="4370" width="110" height="30" as="geometry" />
        </mxCell>
        <mxCell id="1gzTH547AW1qi-_04Jj6-184" value="Not First Time Login" style="text;html=1;align=center;verticalAlign=middle;whiteSpace=wrap;rounded=0;" vertex="1" parent="1">
          <mxGeometry x="850" y="4102.5" width="60" height="30" as="geometry" />
        </mxCell>
        <mxCell id="1gzTH547AW1qi-_04Jj6-187" value="" style="rounded=1;whiteSpace=wrap;html=1;" vertex="1" parent="1">
          <mxGeometry x="1020" y="4060" width="260" height="180" as="geometry" />
        </mxCell>
        <mxCell id="1gzTH547AW1qi-_04Jj6-200" value="A page to enter employee details&lt;div&gt;&lt;br&gt;&lt;/div&gt;&lt;div&gt;// For all types of doctors&amp;nbsp; &amp;nbsp;&lt;/div&gt;" style="text;html=1;align=center;verticalAlign=middle;whiteSpace=wrap;rounded=0;" vertex="1" parent="1">
          <mxGeometry x="960" y="3940" width="290" height="30" as="geometry" />
        </mxCell>
        <mxCell id="1gzTH547AW1qi-_04Jj6-201" value="Enter User Name&amp;nbsp;" style="rounded=1;whiteSpace=wrap;html=1;" vertex="1" parent="1">
          <mxGeometry x="1050" y="4085" width="210" height="27.5" as="geometry" />
        </mxCell>
        <mxCell id="1gzTH547AW1qi-_04Jj6-202" value="Enter Bank ID" style="rounded=1;whiteSpace=wrap;html=1;" vertex="1" parent="1">
          <mxGeometry x="1050" y="4122.5" width="210" height="27.5" as="geometry" />
        </mxCell>
        <mxCell id="1gzTH547AW1qi-_04Jj6-203" value="Enter National ID" style="rounded=1;whiteSpace=wrap;html=1;" vertex="1" parent="1">
          <mxGeometry x="1050" y="4160" width="210" height="27.5" as="geometry" />
        </mxCell>
        <mxCell id="1gzTH547AW1qi-_04Jj6-206" style="edgeStyle=orthogonalEdgeStyle;rounded=0;orthogonalLoop=1;jettySize=auto;html=1;exitX=1;exitY=0.5;exitDx=0;exitDy=0;" edge="1" parent="1" source="1gzTH547AW1qi-_04Jj6-204" target="1gzTH547AW1qi-_04Jj6-205">
          <mxGeometry relative="1" as="geometry" />
        </mxCell>
        <mxCell id="1gzTH547AW1qi-_04Jj6-204" value="Look Up Emplyee&amp;nbsp;" style="rounded=1;whiteSpace=wrap;html=1;" vertex="1" parent="1">
          <mxGeometry x="1072.5" y="4201.25" width="145" height="27.5" as="geometry" />
        </mxCell>
        <mxCell id="1gzTH547AW1qi-_04Jj6-205" value="&lt;span style=&quot;color: rgba(0, 0, 0, 0); font-family: monospace; font-size: 0px; text-align: start; text-wrap: nowrap;&quot;&gt;%3CmxGraphModel%3E%3Croot%3E%3CmxCell%20id%3D%220%22%2F%3E%3CmxCell%20id%3D%221%22%20parent%3D%220%22%2F%3E%3CmxCell%20id%3D%222%22%20value%3D%22User%20Name%26amp%3Bnbsp%3B%22%20style%3D%22rounded%3D1%3BwhiteSpace%3Dwrap%3Bhtml%3D1%3B%22%20vertex%3D%221%22%20parent%3D%221%22%3E%3CmxGeometry%20x%3D%221050%22%20y%3D%224085%22%20width%3D%22210%22%20height%3D%2227.5%22%20as%3D%22geometry%22%2F%3E%3C%2FmxCell%3E%3C%2Froot%3E%3C%2FmxGraphModel%3E&lt;/span&gt;&lt;font face=&quot;monospace&quot; color=&quot;rgba(0, 0, 0, 0)&quot;&gt;&lt;span style=&quot;font-size: 0px; text-wrap: nowrap;&quot;&gt;%3CmxGraphModel%3E%3Croot%3E%3CmxCell%20id%3D%220%22%2F%3E%3CmxCell%20id%3D%221%22%20parent%3D%220%22%2F%3E%3CmxCell%20id%3D%222%22%20value%3D%22User%20Name%26amp%3Bnbsp%3B%22%20style%3D%22rounded%3D1%3BwhiteSpace%3Dwrap%3Bhtml%3D1%3B%22%20vertex%3D%221%22%20parent%3D%221%22%3E%3CmxGeometry%20x%3D%221050%22%20y%3D%224085%22%20width%3D%22210%22%20height%3D%2227.5%22%20as%3D%22geometry%22%2F%3E%3C%2FmxCell%3E%3C%2Froot%3E%3C%2FmxGraphModel%3E&lt;/span&gt;&lt;/font&gt;" style="rounded=1;whiteSpace=wrap;html=1;" vertex="1" parent="1">
          <mxGeometry x="1440" y="3880" width="330" height="280" as="geometry" />
        </mxCell>
        <mxCell id="1gzTH547AW1qi-_04Jj6-208" value="Employee Photo&amp;nbsp;" style="rounded=1;whiteSpace=wrap;html=1;" vertex="1" parent="1">
          <mxGeometry x="1630" y="3890" width="120" height="60" as="geometry" />
        </mxCell>
        <mxCell id="1gzTH547AW1qi-_04Jj6-209" value="Medical History&amp;nbsp;&lt;div&gt;&lt;br&gt;&lt;/div&gt;&lt;div&gt;Prev. Prescriptions&amp;nbsp;&lt;/div&gt;&lt;div&gt;Prev. Appointments&lt;/div&gt;&lt;div&gt;Prev. Lab Reports&amp;nbsp;&lt;/div&gt;" style="rounded=1;whiteSpace=wrap;html=1;" vertex="1" parent="1">
          <mxGeometry x="1490" y="3952.5" width="230" height="160" as="geometry" />
        </mxCell>
        <mxCell id="1gzTH547AW1qi-_04Jj6-211" value="" style="rounded=1;whiteSpace=wrap;html=1;" vertex="1" parent="1">
          <mxGeometry x="1025" y="4283" width="240" height="257" as="geometry" />
        </mxCell>
        <mxCell id="1gzTH547AW1qi-_04Jj6-212" value="// If&amp;nbsp; specialized or private doctor&amp;nbsp;" style="text;html=1;align=center;verticalAlign=middle;whiteSpace=wrap;rounded=0;" vertex="1" parent="1">
          <mxGeometry x="1030" y="4253" width="150" height="30" as="geometry" />
        </mxCell>
        <mxCell id="1gzTH547AW1qi-_04Jj6-224" style="edgeStyle=orthogonalEdgeStyle;rounded=0;orthogonalLoop=1;jettySize=auto;html=1;exitX=1;exitY=0.5;exitDx=0;exitDy=0;" edge="1" parent="1" source="1gzTH547AW1qi-_04Jj6-213" target="1gzTH547AW1qi-_04Jj6-223">
          <mxGeometry relative="1" as="geometry" />
        </mxCell>
        <mxCell id="1gzTH547AW1qi-_04Jj6-213" value="Give Diagnosis" style="rounded=1;whiteSpace=wrap;html=1;" vertex="1" parent="1">
          <mxGeometry x="1080" y="4291.5" width="110" height="38.5" as="geometry" />
        </mxCell>
        <mxCell id="1gzTH547AW1qi-_04Jj6-227" style="edgeStyle=orthogonalEdgeStyle;rounded=0;orthogonalLoop=1;jettySize=auto;html=1;exitX=1;exitY=0.5;exitDx=0;exitDy=0;" edge="1" parent="1" source="1gzTH547AW1qi-_04Jj6-214" target="1gzTH547AW1qi-_04Jj6-226">
          <mxGeometry relative="1" as="geometry" />
        </mxCell>
        <mxCell id="1gzTH547AW1qi-_04Jj6-214" value="Give Prescription" style="rounded=1;whiteSpace=wrap;html=1;" vertex="1" parent="1">
          <mxGeometry x="1080" y="4340" width="110" height="38.5" as="geometry" />
        </mxCell>
        <mxCell id="1gzTH547AW1qi-_04Jj6-232" style="edgeStyle=orthogonalEdgeStyle;rounded=0;orthogonalLoop=1;jettySize=auto;html=1;exitX=1;exitY=0.5;exitDx=0;exitDy=0;" edge="1" parent="1" source="1gzTH547AW1qi-_04Jj6-215">
          <mxGeometry relative="1" as="geometry">
            <mxPoint x="1190" y="4469.139999999999" as="sourcePoint" />
            <mxPoint x="1370.04347826087" y="4620.89" as="targetPoint" />
            <Array as="points">
              <mxPoint x="1280" y="4409" />
              <mxPoint x="1280" y="4470" />
              <mxPoint x="1370" y="4470" />
            </Array>
          </mxGeometry>
        </mxCell>
        <mxCell id="1gzTH547AW1qi-_04Jj6-215" value="Give Sick Leave&amp;nbsp;" style="rounded=1;whiteSpace=wrap;html=1;" vertex="1" parent="1">
          <mxGeometry x="1080" y="4392.25" width="110" height="38.5" as="geometry" />
        </mxCell>
        <mxCell id="1gzTH547AW1qi-_04Jj6-218" value="" style="rounded=1;whiteSpace=wrap;html=1;" vertex="1" parent="1">
          <mxGeometry x="1030" y="4760" width="240" height="100" as="geometry" />
        </mxCell>
        <mxCell id="1gzTH547AW1qi-_04Jj6-219" value="// If Analysis Doctor&amp;nbsp;" style="text;html=1;align=center;verticalAlign=middle;whiteSpace=wrap;rounded=0;" vertex="1" parent="1">
          <mxGeometry x="1035" y="4730" width="130" height="30" as="geometry" />
        </mxCell>
        <mxCell id="1gzTH547AW1qi-_04Jj6-244" style="edgeStyle=orthogonalEdgeStyle;rounded=0;orthogonalLoop=1;jettySize=auto;html=1;exitX=1;exitY=0.5;exitDx=0;exitDy=0;" edge="1" parent="1" source="1gzTH547AW1qi-_04Jj6-221" target="1gzTH547AW1qi-_04Jj6-243">
          <mxGeometry relative="1" as="geometry" />
        </mxCell>
        <mxCell id="1gzTH547AW1qi-_04Jj6-221" value="Give Lab Test Results&amp;nbsp;" style="rounded=1;whiteSpace=wrap;html=1;" vertex="1" parent="1">
          <mxGeometry x="1082.5" y="4790.75" width="110" height="38.5" as="geometry" />
        </mxCell>
        <mxCell id="1gzTH547AW1qi-_04Jj6-222" value="Back" style="rounded=1;whiteSpace=wrap;html=1;" vertex="1" parent="1">
          <mxGeometry x="1550" y="4117" width="110" height="38.5" as="geometry" />
        </mxCell>
        <mxCell id="1gzTH547AW1qi-_04Jj6-223" value="" style="rounded=1;whiteSpace=wrap;html=1;" vertex="1" parent="1">
          <mxGeometry x="1420" y="4228.75" width="320" height="111.25" as="geometry" />
        </mxCell>
        <mxCell id="1gzTH547AW1qi-_04Jj6-225" value="Diagnosis Description" style="rounded=1;whiteSpace=wrap;html=1;" vertex="1" parent="1">
          <mxGeometry x="1480" y="4250" width="200" height="60" as="geometry" />
        </mxCell>
        <mxCell id="1gzTH547AW1qi-_04Jj6-226" value="" style="rounded=1;whiteSpace=wrap;html=1;" vertex="1" parent="1">
          <mxGeometry x="1420" y="4351" width="325" height="179" as="geometry" />
        </mxCell>
        <mxCell id="1gzTH547AW1qi-_04Jj6-229" value="Order Medicine&amp;nbsp;&lt;br&gt;// Text Box to enter medicine name&amp;nbsp;&amp;nbsp;" style="rounded=1;whiteSpace=wrap;html=1;" vertex="1" parent="1">
          <mxGeometry x="1480" y="4378.5" width="220" height="41.5" as="geometry" />
        </mxCell>
        <mxCell id="1gzTH547AW1qi-_04Jj6-230" value="Choose Pharmacy Name&amp;nbsp;" style="rounded=1;whiteSpace=wrap;html=1;" vertex="1" parent="1">
          <mxGeometry x="1480" y="4439" width="220" height="41.5" as="geometry" />
        </mxCell>
        <mxCell id="1gzTH547AW1qi-_04Jj6-233" value="" style="rounded=1;whiteSpace=wrap;html=1;" vertex="1" parent="1">
          <mxGeometry x="1350" y="4620" width="325" height="179" as="geometry" />
        </mxCell>
        <mxCell id="1gzTH547AW1qi-_04Jj6-236" value="Sick Leave Start Date&amp;nbsp;" style="rounded=1;whiteSpace=wrap;html=1;" vertex="1" parent="1">
          <mxGeometry x="1380" y="4635" width="220" height="41.5" as="geometry" />
        </mxCell>
        <mxCell id="1gzTH547AW1qi-_04Jj6-237" value="Sick Leave End Date&amp;nbsp;" style="rounded=1;whiteSpace=wrap;html=1;" vertex="1" parent="1">
          <mxGeometry x="1380" y="4688.75" width="220" height="41.5" as="geometry" />
        </mxCell>
        <mxCell id="1gzTH547AW1qi-_04Jj6-238" value="Confirm" style="rounded=1;whiteSpace=wrap;html=1;" vertex="1" parent="1">
          <mxGeometry x="1402.5" y="4739.25" width="167.5" height="40.75" as="geometry" />
        </mxCell>
        <mxCell id="1gzTH547AW1qi-_04Jj6-243" value="Upload pdf of the lab test results&amp;nbsp;" style="rounded=1;whiteSpace=wrap;html=1;" vertex="1" parent="1">
          <mxGeometry x="1098" y="5060" width="285" height="159" as="geometry" />
        </mxCell>
        <mxCell id="1gzTH547AW1qi-_04Jj6-245" value="Confirm&amp;nbsp;" style="rounded=1;whiteSpace=wrap;html=1;" vertex="1" parent="1">
          <mxGeometry x="1195.5" y="5159" width="102.5" height="40" as="geometry" />
        </mxCell>
        <mxCell id="1gzTH547AW1qi-_04Jj6-246" value="Home Page&amp;nbsp;" style="rounded=1;whiteSpace=wrap;html=1;" vertex="1" parent="1">
          <mxGeometry x="30" y="3590" width="180" height="120" as="geometry" />
        </mxCell>
        <mxCell id="1gzTH547AW1qi-_04Jj6-247" style="edgeStyle=orthogonalEdgeStyle;rounded=0;orthogonalLoop=1;jettySize=auto;html=1;exitX=1;exitY=0.5;exitDx=0;exitDy=0;entryX=0.007;entryY=0.151;entryDx=0;entryDy=0;entryPerimeter=0;" edge="1" parent="1" source="1gzTH547AW1qi-_04Jj6-246" target="1gzTH547AW1qi-_04Jj6-163">
          <mxGeometry relative="1" as="geometry" />
        </mxCell>
        <mxCell id="1gzTH547AW1qi-_04Jj6-248" value="Home Page&amp;nbsp;" style="rounded=1;whiteSpace=wrap;html=1;" vertex="1" parent="1">
          <mxGeometry x="-250" y="2020" width="120" height="60" as="geometry" />
        </mxCell>
        <mxCell id="1gzTH547AW1qi-_04Jj6-249" style="edgeStyle=orthogonalEdgeStyle;rounded=0;orthogonalLoop=1;jettySize=auto;html=1;exitX=1;exitY=0.5;exitDx=0;exitDy=0;entryX=0.012;entryY=0.045;entryDx=0;entryDy=0;entryPerimeter=0;" edge="1" parent="1" source="1gzTH547AW1qi-_04Jj6-248" target="1gzTH547AW1qi-_04Jj6-106">
          <mxGeometry relative="1" as="geometry" />
        </mxCell>
        <mxCell id="1gzTH547AW1qi-_04Jj6-251" style="edgeStyle=orthogonalEdgeStyle;rounded=0;orthogonalLoop=1;jettySize=auto;html=1;exitX=1;exitY=0.5;exitDx=0;exitDy=0;entryX=0;entryY=0.25;entryDx=0;entryDy=0;" edge="1" parent="1" source="1gzTH547AW1qi-_04Jj6-250" target="1gzTH547AW1qi-_04Jj6-2">
          <mxGeometry relative="1" as="geometry" />
        </mxCell>
        <mxCell id="1gzTH547AW1qi-_04Jj6-250" value="Home Page" style="rounded=1;whiteSpace=wrap;html=1;" vertex="1" parent="1">
          <mxGeometry x="-270" y="30" width="120" height="60" as="geometry" />
        </mxCell>
        <mxCell id="1gzTH547AW1qi-_04Jj6-255" style="edgeStyle=orthogonalEdgeStyle;rounded=0;orthogonalLoop=1;jettySize=auto;html=1;exitX=0.5;exitY=1;exitDx=0;exitDy=0;" edge="1" parent="1" source="1gzTH547AW1qi-_04Jj6-253" target="1gzTH547AW1qi-_04Jj6-254">
          <mxGeometry relative="1" as="geometry" />
        </mxCell>
        <mxCell id="1gzTH547AW1qi-_04Jj6-253" value="&lt;span style=&quot;font-size: 18px;&quot;&gt;View History&amp;nbsp;&lt;/span&gt;" style="rounded=1;whiteSpace=wrap;html=1;" vertex="1" parent="1">
          <mxGeometry x="630" y="2670" width="270" height="130" as="geometry" />
        </mxCell>
        <mxCell id="1gzTH547AW1qi-_04Jj6-254" value="" style="rounded=1;whiteSpace=wrap;html=1;" vertex="1" parent="1">
          <mxGeometry x="630" y="2935" width="380" height="265" as="geometry" />
        </mxCell>
        <mxCell id="1gzTH547AW1qi-_04Jj6-257" value="&lt;span style=&quot;white-space: pre;&quot;&gt;&lt;font style=&quot;font-size: 18px;&quot;&gt;&#x9;&lt;/font&gt;&lt;/span&gt;&lt;ul&gt;&lt;li&gt;&lt;font size=&quot;3&quot;&gt;Previous Requests&amp;nbsp;&lt;/font&gt;&lt;/li&gt;&lt;li&gt;&lt;font size=&quot;3&quot;&gt;All Previous Appointments&amp;nbsp;&lt;/font&gt;&lt;/li&gt;&lt;/ul&gt;" style="text;strokeColor=none;fillColor=none;html=1;whiteSpace=wrap;verticalAlign=middle;overflow=hidden;" vertex="1" parent="1">
          <mxGeometry x="695" y="2970" width="255" height="170" as="geometry" />
        </mxCell>
        <mxCell id="1gzTH547AW1qi-_04Jj6-261" style="edgeStyle=orthogonalEdgeStyle;rounded=0;orthogonalLoop=1;jettySize=auto;html=1;exitX=0;exitY=0.5;exitDx=0;exitDy=0;" edge="1" parent="1" source="1gzTH547AW1qi-_04Jj6-258" target="1gzTH547AW1qi-_04Jj6-260">
          <mxGeometry relative="1" as="geometry">
            <Array as="points">
              <mxPoint x="1080" y="4480" />
              <mxPoint x="540" y="4480" />
            </Array>
          </mxGeometry>
        </mxCell>
        <mxCell id="1gzTH547AW1qi-_04Jj6-258" value="Fill Time Table" style="rounded=1;whiteSpace=wrap;html=1;" vertex="1" parent="1">
          <mxGeometry x="1080" y="4440.5" width="110" height="38.5" as="geometry" />
        </mxCell>
        <mxCell id="1gzTH547AW1qi-_04Jj6-263" style="edgeStyle=orthogonalEdgeStyle;rounded=0;orthogonalLoop=1;jettySize=auto;html=1;exitX=0;exitY=0.5;exitDx=0;exitDy=0;" edge="1" parent="1" source="1gzTH547AW1qi-_04Jj6-259" target="1gzTH547AW1qi-_04Jj6-262">
          <mxGeometry relative="1" as="geometry" />
        </mxCell>
        <mxCell id="1gzTH547AW1qi-_04Jj6-259" value="Order Lab Tests" style="rounded=1;whiteSpace=wrap;html=1;" vertex="1" parent="1">
          <mxGeometry x="1080" y="4491.5" width="110" height="38.5" as="geometry" />
        </mxCell>
        <mxCell id="1gzTH547AW1qi-_04Jj6-260" value="" style="rounded=1;whiteSpace=wrap;html=1;" vertex="1" parent="1">
          <mxGeometry x="220" y="4571" width="375" height="389" as="geometry" />
        </mxCell>
        <mxCell id="1gzTH547AW1qi-_04Jj6-262" value="" style="rounded=1;whiteSpace=wrap;html=1;" vertex="1" parent="1">
          <mxGeometry x="585" y="5018" width="345" height="252" as="geometry" />
        </mxCell>
        <mxCell id="1gzTH547AW1qi-_04Jj6-266" value="Choose Available Days&amp;nbsp;" style="rounded=1;whiteSpace=wrap;html=1;" vertex="1" parent="1">
          <mxGeometry x="260" y="4590" width="300" height="60" as="geometry" />
        </mxCell>
        <mxCell id="1gzTH547AW1qi-_04Jj6-267" value="Specify start and end hours for each day&amp;nbsp;" style="rounded=1;whiteSpace=wrap;html=1;" vertex="1" parent="1">
          <mxGeometry x="260" y="4671.5" width="300" height="48.5" as="geometry" />
        </mxCell>
        <mxCell id="1gzTH547AW1qi-_04Jj6-268" value="Update&amp;nbsp;&lt;div&gt;&lt;br&gt;&lt;/div&gt;" style="rounded=1;whiteSpace=wrap;html=1;" vertex="1" parent="1">
          <mxGeometry x="330" y="4762.25" width="152.5" height="57.75" as="geometry" />
        </mxCell>
        <mxCell id="1gzTH547AW1qi-_04Jj6-269" value="Enter Lab Tests required via a text ox then be put in&amp;nbsp; a gridview&amp;nbsp;" style="rounded=1;whiteSpace=wrap;html=1;" vertex="1" parent="1">
          <mxGeometry x="630" y="5030" width="270" height="60" as="geometry" />
        </mxCell>
        <mxCell id="1gzTH547AW1qi-_04Jj6-270" value="Confirm" style="rounded=1;whiteSpace=wrap;html=1;" vertex="1" parent="1">
          <mxGeometry x="695" y="5140" width="135" height="40" as="geometry" />
        </mxCell>
      </root>
    </mxGraphModel>
  </diagram>
</mxfile>
